<svg xmlns="http://www.w3.org/2000/svg" xmlns:xlink="http://www.w3.org/1999/xlink" version="1.1" x="0px" y="0px" viewBox="0 0 64 64" enable-background="new 0 0 64 64" xml:space="preserve"><path d="M29.685,53.75c-7.061,0-12.338-4.454-12.559-4.643l-1.821-1.561l2.392-0.195c0.562-0.045,13.754-1.302,13.834-17.024  c0.03-5.893-2.394-10.399-7.205-13.396c-3.667-2.284-7.419-2.804-7.457-2.809l-2.025-0.269l1.455-1.435  c0.235-0.231,5.838-5.668,13.386-5.668c13.683,0,24.815,10.542,24.815,23.5S43.368,53.75,29.685,53.75z M20.261,48.87  c1.991,1.223,5.426,2.88,9.423,2.88c12.581,0,22.815-9.645,22.815-21.5S42.265,8.75,29.685,8.75c-4.588,0-8.461,2.339-10.481,3.847  c4.427,1.216,14.392,5.335,14.328,17.74C33.463,43.627,24.64,47.678,20.261,48.87z"></path></svg>