<svg xmlns="http://www.w3.org/2000/svg" xmlns:xlink="http://www.w3.org/1999/xlink" version="1.1" x="0px" y="0px" viewBox="0 0 64 64" enable-background="new 0 0 64 64" xml:space="preserve"><path d="M33.165,51.996c-10.292,0-18.666-8.374-18.666-18.666s8.374-18.666,18.666-18.666s18.666,8.374,18.666,18.666  S43.457,51.996,33.165,51.996z M33.165,16.664c-9.189,0-16.666,7.477-16.666,16.666s7.477,16.666,16.666,16.666  s16.666-7.477,16.666-16.666S42.354,16.664,33.165,16.664z"></path><g><line fill="#000000" x1="33.165" y1="11.25" x2="33.165" y2="4.75"></line><path d="M33.165,12.25c-0.552,0-1-0.448-1-1v-6.5c0-0.552,0.448-1,1-1s1,0.448,1,1v6.5C34.165,11.802,33.717,12.25,33.165,12.25z"></path></g><g><line fill="#000000" x1="33.165" y1="61" x2="33.165" y2="54.5"></line><path d="M33.165,62c-0.552,0-1-0.448-1-1v-6.5c0-0.552,0.448-1,1-1s1,0.448,1,1V61C34.165,61.552,33.717,62,33.165,62z"></path></g><g><line fill="#000000" x1="54.79" y1="33.33" x2="61.29" y2="33.33"></line><path d="M61.29,34.33h-6.5c-0.552,0-1-0.448-1-1s0.448-1,1-1h6.5c0.552,0,1,0.448,1,1S61.842,34.33,61.29,34.33z"></path></g><g><line fill="#000000" x1="5.04" y1="33.33" x2="11.54" y2="33.33"></line><path d="M11.54,34.33h-6.5c-0.552,0-1-0.448-1-1s0.448-1,1-1h6.5c0.552,0,1,0.448,1,1S12.092,34.33,11.54,34.33z"></path></g><g><line fill="#000000" x1="48.456" y1="18.084" x2="53.052" y2="13.488"></line><path d="M48.456,19.084c-0.256,0-0.512-0.098-0.707-0.293c-0.391-0.391-0.391-1.023,0-1.414l4.596-4.596   c0.391-0.391,1.023-0.391,1.414,0s0.391,1.023,0,1.414l-4.596,4.596C48.967,18.986,48.711,19.084,48.456,19.084z"></path></g><g><line fill="#000000" x1="13.027" y1="53.262" x2="17.624" y2="48.666"></line><path d="M13.027,54.262c-0.256,0-0.512-0.098-0.707-0.293c-0.391-0.391-0.391-1.023,0-1.414l4.596-4.596   c0.391-0.391,1.023-0.391,1.414,0s0.391,1.023,0,1.414l-4.596,4.596C13.539,54.165,13.283,54.262,13.027,54.262z"></path></g><g><line fill="#000000" x1="48.456" y1="48.916" x2="53.052" y2="53.512"></line><path d="M53.052,54.512c-0.256,0-0.512-0.098-0.707-0.293l-4.596-4.596c-0.391-0.391-0.391-1.023,0-1.414s1.023-0.391,1.414,0   l4.596,4.596c0.391,0.391,0.391,1.023,0,1.414C53.563,54.415,53.308,54.512,53.052,54.512z"></path></g><g><line fill="#000000" x1="13.027" y1="13.738" x2="17.624" y2="18.334"></line><path d="M17.624,19.334c-0.256,0-0.512-0.098-0.707-0.293l-4.596-4.596c-0.391-0.391-0.391-1.023,0-1.414s1.023-0.391,1.414,0   l4.596,4.596c0.391,0.391,0.391,1.023,0,1.414C18.135,19.236,17.879,19.334,17.624,19.334z"></path></g></svg>