<svg xmlns:x="http://ns.adobe.com/Extensibility/1.0/" xmlns:i="http://ns.adobe.com/AdobeIllustrator/10.0/" xmlns:graph="http://ns.adobe.com/Graphs/1.0/" xmlns="http://www.w3.org/2000/svg" xmlns:xlink="http://www.w3.org/1999/xlink" version="1.1" x="0px" y="0px" viewBox="0 0 64 64" enable-background="new 0 0 64 64" xml:space="preserve"><metadata><sfw xmlns="http://ns.adobe.com/SaveForWeb/1.0/"><slices></slices><sliceSourceBounds height="16384" width="16389" x="-8165" y="-8160" bottomLeftOrigin="true"></sliceSourceBounds></sfw></metadata><g><g><path d="M53.5,11.5h-5V8c0-0.276-0.224-0.5-0.5-0.5S47.5,7.724,47.5,8v3.5h-31V8c0-0.276-0.224-0.5-0.5-0.5S15.5,7.724,15.5,8v3.5    h-5c-1.654,0-3,1.346-3,3v39c0,1.654,1.346,3,3,3h43c1.654,0,3-1.346,3-3v-39C56.5,12.846,55.154,11.5,53.5,11.5z M10.5,12.5h5V16    c0,0.276,0.224,0.5,0.5,0.5s0.5-0.224,0.5-0.5v-3.5h31V16c0,0.276,0.224,0.5,0.5,0.5s0.5-0.224,0.5-0.5v-3.5h5    c1.103,0,2,0.897,2,2v7h-47v-7C8.5,13.397,9.397,12.5,10.5,12.5z M53.5,55.5h-43c-1.103,0-2-0.897-2-2v-31h47v31    C55.5,54.603,54.603,55.5,53.5,55.5z"></path><circle cx="24" cy="30" r="1"></circle><circle cx="32" cy="30" r="1"></circle><circle cx="40" cy="30" r="1"></circle><circle cx="48" cy="30" r="1"></circle><circle cx="16" cy="38" r="1"></circle><circle cx="24" cy="38" r="1"></circle><circle cx="32" cy="38" r="1"></circle><circle cx="40" cy="38" r="1"></circle><circle cx="48" cy="38" r="1"></circle><circle cx="16" cy="46" r="1"></circle><circle cx="24" cy="46" r="1"></circle><path d="M32,43.5c-1.378,0-2.5,1.121-2.5,2.5s1.122,2.5,2.5,2.5c1.379,0,2.5-1.121,2.5-2.5S33.379,43.5,32,43.5z M32,47.5    c-0.827,0-1.5-0.673-1.5-1.5s0.673-1.5,1.5-1.5s1.5,0.673,1.5,1.5S32.827,47.5,32,47.5z"></path></g></g></svg>